<svg width="200" height="200" viewBox="0 0 200 200" fill="none" xmlns="http://www.w3.org/2000/svg">
<path d="M200 100C200 155.228 155.228 200 100 200C44.7715 200 0 155.228 0 100C0 44.7715 44.7715 0 100 0C155.228 0 200 44.7715 200 100Z" fill="#00D743"/>
<path d="M180 100C180 120.122 172.418 139.504 158.764 154.284C145.11 169.065 126.388 178.157 106.33 179.749C86.2714 181.341 66.3495 175.316 50.5353 162.875C34.721 150.433 24.1759 132.49 21.0017 112.62C17.8275 92.7504 22.2574 72.4143 33.4085 55.6652C44.5596 38.9162 61.6127 26.9843 81.1689 22.2479C100.725 17.5115 121.348 20.3185 138.927 30.1094C156.506 39.9002 169.749 55.9558 176.018 75.076L163.855 79.0638C158.59 63.0029 147.465 49.5162 132.699 41.2919C117.932 33.0675 100.609 30.7097 84.1819 34.6882C67.7547 38.6668 53.43 48.6896 44.0631 62.7588C34.6962 76.828 30.9751 93.9103 33.6414 110.601C36.3077 127.291 45.1657 142.364 58.4496 152.815C71.7336 163.266 88.468 168.327 105.317 166.989C122.166 165.652 137.893 158.014 149.362 145.599C160.831 133.184 167.2 116.902 167.2 100H180Z" fill="white"/>
<path d="M167 105L180 102V160.025C175.355 166.183 172.475 169.414 167 174.227V105Z" fill="white"/>
<circle cx="72" cy="85" r="10" fill="white"/>
<circle cx="128" cy="85" r="10" fill="white"/>
</svg>
