<svg width="49" height="38" viewBox="0 0 49 38" fill="none" xmlns="http://www.w3.org/2000/svg">
<path fill-rule="evenodd" clip-rule="evenodd" d="M0.143989 6.87463L24.132 0L48.4126 6.87463L23.6932 13.3104L0.143989 6.87463ZM10.9679 6.28955L12.5768 6.87463L23.6932 3.07164L21.938 2.48657L10.9679 6.28955Z" fill="#121316"/>
<path d="M46.0729 7.4597L46.658 7.31343V14.3343H46.8043L47.5356 16.3821H45.1953L45.9266 14.3343H46.0729V7.4597Z" fill="#121316"/>
<path d="M6.34593 15.5852C7.84422 13.7367 9.94743 12.4771 12.2842 12.0286C14.621 11.5802 17.0411 11.9718 19.1173 13.1343C21.1934 14.2968 22.792 16.1555 23.6309 18.3822C24.4697 20.6088 24.4949 23.0603 23.702 25.3037C22.909 27.5471 21.3489 29.4382 19.2971 30.6432C17.2453 31.8481 14.8337 32.2893 12.4882 31.889C10.1427 31.4886 8.01406 30.2724 6.47812 28.4551C4.94218 26.6378 4.09772 24.3362 4.09383 21.9568L7.72714 21.9509C7.72963 23.4737 8.27008 24.9467 9.25309 26.1098C10.2361 27.2728 11.5984 28.0512 13.0995 28.3074C14.6007 28.5637 16.1441 28.2813 17.4572 27.5101C18.7704 26.739 19.7689 25.5287 20.2763 24.0929C20.7838 22.6571 20.7677 21.0882 20.2308 19.6631C19.694 18.238 18.6709 17.0485 17.3421 16.3045C16.0134 15.5605 14.4645 15.3098 12.969 15.5968C11.4734 15.8838 10.1274 16.69 9.16849 17.873L6.34593 15.5852Z" fill="#121316"/>
<path d="M42.0656 15.5852C40.5673 13.7367 38.4641 12.4771 36.1273 12.0286C33.7905 11.5802 31.3704 11.9718 29.2943 13.1343C27.2181 14.2968 25.6195 16.1555 24.7806 18.3822C23.9418 20.6088 23.9166 23.0603 24.7096 25.3037C25.5025 27.5471 27.0626 29.4382 29.1144 30.6432C31.1662 31.8481 33.5778 32.2893 35.9233 31.889C38.2688 31.4886 40.3975 30.2724 41.9334 28.4551C43.4693 26.6378 44.3138 24.3362 44.3177 21.9568L40.6844 21.9509C40.6819 23.4737 40.1414 24.9467 39.1584 26.1098C38.1754 27.2728 36.8131 28.0512 35.312 28.3074C33.8108 28.5637 32.2674 28.2813 30.9543 27.5101C29.6411 26.739 28.6427 25.5287 28.1352 24.0929C27.6277 22.6571 27.6438 21.0882 28.1807 19.6631C28.7175 18.238 29.7407 17.0485 31.0694 16.3045C32.3981 15.5605 33.947 15.3098 35.4425 15.5968C36.9381 15.8838 38.2841 16.69 39.243 17.873L42.0656 15.5852Z" fill="#121316"/>
<path d="M24.1326 21.3552L44.2923 21.4406C44.3908 22.4522 44.145 23.5648 43.952 24.5731L24.1326 24.4269V21.3552Z" fill="#121316"/>
<path d="M24.2789 21.3552L4.09382 21.4284C4.02068 22.4522 4.26654 23.4917 4.45949 24.5L24.2789 24.4269V21.3552Z" fill="#121316"/>
<path d="M20.5444 32.9962L24.0721 29.5991C24.1869 29.4886 24.3692 29.4903 24.4819 29.603L28.0174 33.1385C28.1331 33.2542 28.1314 33.4425 28.0134 33.556L24.4857 36.9531C24.3709 37.0637 24.1886 37.062 24.0759 36.9493L20.5404 33.4138C20.4247 33.298 20.4264 33.1098 20.5444 32.9962Z" fill="#121316"/>
</svg>
