<svg width="600" height="602" viewBox="0 0 600 602" fill="none" xmlns="http://www.w3.org/2000/svg">
<path d="M600 302C600 467.685 465.685 602 300 602C134.315 602 0 467.685 0 302C0 136.314 134.315 1.99951 300 1.99951C465.685 1.99951 600 136.314 600 302ZM78 302C78 424.607 177.393 524 300 524C422.607 524 522 424.607 522 302C522 179.392 422.607 79.9995 300 79.9995C177.393 79.9995 78 179.392 78 302Z" fill="#E3F9EA"/>
<path d="M451.167 42.1718L451.366 41.8264L450.5 41.3264C416.268 21.5624 378.478 8.73453 339.288 3.57511C300.099 -1.58432 260.276 1.02577 222.095 11.2563L221.13 11.5152L221.388 12.4811L241.576 87.8233L241.835 88.7892L242.801 88.5304C270.834 81.0189 300.072 79.1025 328.846 82.8907C357.62 86.6788 385.366 96.0973 410.5 110.608L411.366 111.108L411.732 110.474C411.707 111.536 412.247 112.579 413.232 113.148C414.667 113.976 416.502 113.484 417.33 112.05L455.33 46.2316C456.159 44.7968 455.667 42.962 454.232 42.1336C453.247 41.5648 452.074 41.6182 451.167 42.1718Z" fill="#00D743" stroke="white" stroke-width="2"/>
</svg>
